<svg xmlns="http://www.w3.org/2000/svg" width="800" height="600" viewBox="0 0 800 600">
  <defs>
    <linearGradient id="bg" x1="0%" y1="0%" x2="100%" y2="100%">
      <stop offset="0%" style="stop-color:#1a1a2e"/>
      <stop offset="100%" style="stop-color:#16213e"/>
    </linearGradient>
    <linearGradient id="brush" x1="0%" y1="0%" x2="100%" y2="0%">
      <stop offset="0%" style="stop-color:#b76e79"/>
      <stop offset="100%" style="stop-color:#d4a574"/>
    </linearGradient>
  </defs>
  <rect width="800" height="600" fill="url(#bg)"/>
  <g transform="translate(250, 150)">
    <rect x="0" y="0" width="12" height="250" rx="3" fill="url(#brush)" transform="rotate(-15, 6, 125)"/>
    <rect x="50" y="0" width="14" height="260" rx="3" fill="url(#brush)" transform="rotate(-8, 7, 130)"/>
    <rect x="100" y="0" width="10" height="240" rx="3" fill="url(#brush)" transform="rotate(0, 5, 120)"/>
    <rect x="150" y="0" width="16" height="270" rx="3" fill="url(#brush)" transform="rotate(5, 8, 135)"/>
    <rect x="200" y="0" width="11" height="245" rx="3" fill="url(#brush)" transform="rotate(12, 5, 122)"/>
    <rect x="250" y="0" width="13" height="255" rx="3" fill="url(#brush)" transform="rotate(18, 6, 127)"/>
  </g>
  <text x="400" y="520" text-anchor="middle" font-family="Arial" font-size="24" fill="#d4a574" opacity="0.6">Set de Brochas Pro</text>
</svg>
